<svg width="60" height="60" viewBox="0 0 60 60" fill="none" xmlns="http://www.w3.org/2000/svg">
  <path d="M22.7595 22.2425C22.7595 32.2093 19.2891 40.4618 12.3482 47L6.17412 46.0432L7.99004 32.0498C5.24599 32.0498 3.2283 31.3721 1.93698 30.0166C0.645659 28.6611 0 25.7907 0 21.4053C0 17.0199 0.766721 14.1894 2.30016 12.9136C3.8336 11.6379 6.9812 11 11.7429 11C16.5854 11 19.6119 11.6379 20.8225 12.9136C22.1138 14.1894 22.7595 17.299 22.7595 22.2425Z" fill="black" />
  <path d="M60 22.2425C60 32.2093 56.5296 40.4618 49.5887 47L43.4146 46.0432L45.2305 32.0498C42.4865 32.0498 40.4688 31.3721 39.1775 30.0166C37.8862 28.6611 37.2405 25.7907 37.2405 21.4053C37.2405 17.0199 38.0072 14.1894 39.5407 12.9136C41.0741 11.6379 44.2217 11 48.9834 11C53.8259 11 56.8524 11.6379 58.063 12.9136C59.3543 14.1894 60 17.299 60 22.2425Z" fill="black" />
</svg>