<svg width="0" height="0" class="hidden">
  <symbol xmlns="http://www.w3.org/2000/svg" viewBox="0 0 60 60" id="arrow">
    <path d="M31.4142 21.0858C30.6332 20.3047 29.3668 20.3047 28.5858 21.0858L15.8579 33.8137C15.0768 34.5948 15.0768 35.8611 15.8579 36.6421C16.6389 37.4232 17.9052 37.4232 18.6863 36.6421L30 25.3284L41.3137 36.6421C42.0948 37.4232 43.3611 37.4232 44.1421 36.6421C44.9232 35.8611 44.9232 34.5948 44.1421 33.8137L31.4142 21.0858ZM32 23.5714L32 22.5L28 22.5L28 23.5714L32 23.5714Z"></path>
  </symbol>
  <symbol xmlns="http://www.w3.org/2000/svg" viewBox="0 0 60 60" id="Chevron">
    <circle cx="30" cy="30" r="30"></circle>
    <path fill-rule="evenodd" clip-rule="evenodd" d="M15.8579 33.8137L28.5858 21.0858C29.3668 20.3047 30.6332 20.3047 31.4142 21.0858L44.1422 33.8137C44.9232 34.5948 44.9232 35.8611 44.1422 36.6421C43.3611 37.4232 42.0948 37.4232 41.3137 36.6421L30 25.3284L18.6863 36.6421C17.9053 37.4232 16.6389 37.4232 15.8579 36.6421C15.0768 35.8611 15.0768 34.5948 15.8579 33.8137Z" fill="white"></path>
  </symbol>
  <symbol xmlns="http://www.w3.org/2000/svg" viewBox="0 0 60 60" id="email">
    <path d="M30 0C13.4325 0 0 13.4325 0 30C0 46.5675 13.4325 60 30 60C46.5675 60 60 46.5675 60 30C60 13.4325 46.5675 0 30 0V0ZM47.475 17.45L30 31.615L12.5225 17.45H47.475ZM47.5 42.45H12.5V21.1875L30 35.37L47.5 21.19V42.45Z"></path>
  </symbol>
  <symbol xmlns="http://www.w3.org/2000/svg" viewBox="0 0 58 58" id="copying">
    <path d="M36.5956 32.0063L38.6183 26.5833L45.1385 40.2158L31.4167 46.2622L33.3621 40.8731C33.3621 40.8731 13.8958 32.3229 14.7344 14.5C21.2957 28.8502 36.5956 32.0063 36.5956 32.0063ZM58 14.5V58H14.5V43.5H0V0H43.5V14.5H58ZM53.1667 19.3333H23.896C22.5378 17.9365 21.286 16.3294 20.2202 14.5H38.6667V4.83333H4.83333V38.6667H14.5V31.117C15.95 33.4394 17.6103 35.5226 19.3333 37.3423V53.1667H53.1667V19.3333Z"></path>
  </symbol>
  <symbol xmlns="http://www.w3.org/2000/svg" viewBox="0 0 72 60" id="hamburger">
    <path d="M72 12H0V0H72V12ZM72 24H0V36H72V24ZM72 48H0V60H72V48Z"></path>
  </symbol>
  <symbol xmlns="http://www.w3.org/2000/svg" viewBox="0 0 60 60" id="instagram">
    <path d="M38.0825 13.72C35.975 13.625 35.34 13.605 30 13.605C24.66 13.605 24.0275 13.625 21.92 13.72C16.495 13.9675 13.9675 16.5375 13.7225 21.9175C13.625 24.0275 13.6025 24.66 13.6025 30C13.6025 35.34 13.625 35.9725 13.72 38.0825C13.9675 43.4525 16.485 46.0325 21.9175 46.28C24.025 46.375 24.66 46.3975 30 46.3975C35.3425 46.3975 35.975 46.3775 38.0825 46.2825C43.5075 46.035 46.0325 43.46 46.28 38.085C46.375 35.975 46.395 35.3425 46.395 30.0025C46.395 24.6625 46.375 24.03 46.28 21.9225C46.0325 16.54 43.5025 13.9675 38.0825 13.72V13.72ZM30 40.27C24.3275 40.27 19.73 35.6725 19.73 30C19.73 24.3275 24.33 19.73 30 19.73C35.67 19.73 40.27 24.3275 40.27 30C40.27 35.6725 35.6725 40.27 30 40.27ZM40.6775 21.725C39.3525 21.725 38.2775 20.65 38.2775 19.325C38.2775 18 39.3525 16.925 40.6775 16.925C42.0025 16.925 43.0775 18 43.0775 19.325C43.0775 20.65 42.0025 21.725 40.6775 21.725ZM36.6675 30C36.6675 33.6825 33.6825 36.6675 30 36.6675C26.3175 36.6675 23.3325 33.6825 23.3325 30C23.3325 26.3175 26.3175 23.3325 30 23.3325C33.6825 23.3325 36.6675 26.3175 36.6675 30ZM47.5 0H12.5C5.5975 0 0 5.5975 0 12.5V47.5C0 54.4025 5.5975 60 12.5 60H47.5C54.405 60 60 54.4025 60 47.5V12.5C60 5.5975 54.405 0 47.5 0V0ZM49.88 38.245C49.55 45.5175 45.5025 49.5475 38.2475 49.88C36.1125 49.9775 35.4325 50 30 50C24.5675 50 23.89 49.9775 21.755 49.88C14.485 49.5475 10.455 45.51 10.12 38.245C10.0225 36.1125 10 35.4325 10 30C10 24.57 10.0225 23.8875 10.12 21.755C10.455 14.485 14.49 10.4525 21.755 10.1225C23.89 10.0225 24.5675 10 30 10C35.4325 10 36.1125 10.0225 38.2475 10.12C45.5175 10.4525 49.555 14.4975 49.88 21.7525C49.9775 23.8875 50 24.57 50 30C50 35.4325 49.9775 36.1125 49.88 38.245V38.245Z"></path>
  </symbol>
  <symbol xmlns="http://www.w3.org/2000/svg" viewBox="0 0 60 60" id="linkedin">
    <path d="M47.5 0H12.5C5.5975 0 0 5.5975 0 12.5V47.5C0 54.4025 5.5975 60 12.5 60H47.5C54.405 60 60 54.4025 60 47.5V12.5C60 5.5975 54.405 0 47.5 0ZM20 47.5H12.5V20H20V47.5ZM16.25 16.83C13.835 16.83 11.875 14.855 11.875 12.42C11.875 9.985 13.835 8.01 16.25 8.01C18.665 8.01 20.625 9.985 20.625 12.42C20.625 14.855 18.6675 16.83 16.25 16.83ZM50 47.5H42.5V33.49C42.5 25.07 32.5 25.7075 32.5 33.49V47.5H25V20H32.5V24.4125C35.99 17.9475 50 17.47 50 30.6025V47.5Z"></path>
  </symbol>
  <symbol xmlns="http://www.w3.org/2000/svg" viewBox="0 0 71 60" id="heart">
    <path id="Vector" fill-rule="evenodd" clip-rule="evenodd" d="M55.9273 36.0002C49.9248 43.2031 41.5439 51.0151 32.5417 60C15.1082 42.6001 0 29.5982 0 16.8873C0 -1.57453 24.0039 -5.8735 32.5417 8.85939C41.0173 -5.7655 65.0833 -1.63753 65.0833 16.8873C65.0833 19.2393 64.5656 21.6033 63.613 24.0003H45.0406C44.2922 24.0003 43.6029 24.4113 43.236 25.0743L40.8309 29.4242L34.1155 16.1133C33.7842 15.4563 33.1363 15.0213 32.4115 14.9733C31.6837 14.9253 30.9856 15.2643 30.5714 15.8703L25.0098 24.0003H21.3799C20.3563 22.2063 18.4452 21.0003 16.256 21.0003C12.993 21.0003 10.3394 23.6883 10.3394 27.0003C10.3394 30.3122 12.993 33.0002 16.256 33.0002C18.4452 33.0002 20.3563 31.7942 21.3799 30.0002H27.1664C27.8409 30.0002 28.471 29.6672 28.8615 29.1092L31.7873 24.8913L38.4613 38.5682C38.7985 39.2552 39.476 39.7052 40.2304 39.7352C40.9877 39.7682 41.6977 39.3812 42.0912 38.7242L47.2949 30.0002H71V36.0002H55.9273Z"></path>
  </symbol>
  <symbol xmlns="http://www.w3.org/2000/svg" viewBox="0 0 60 56" id="location">
    <path d="M30 5.08333C35.3275 5.08333 40 9.48042 40 14.4926C40 19.703 35.715 27.051 30 36.2518C24.285 27.051 20 19.703 20 14.4926C20 9.48042 24.6725 5.08333 30 5.08333ZM30 0C22.13 0 15 6.48888 15 14.4926C15 22.4937 21.505 32.0479 30 45.75C38.495 32.0479 45 22.4937 45 14.4926C45 6.48888 37.8725 0 30 0ZM30 20.3333C27.2375 20.3333 25 18.0585 25 15.25C25 12.4415 27.2375 10.1667 30 10.1667C32.7625 10.1667 35 12.4415 35 15.25C35 18.0585 32.7625 20.3333 30 20.3333ZM50 35.5833H42.1625C41.2 37.2125 40.1675 38.9104 39.0825 40.6667H46.91L48.16 43.2083H37.5L36.64 44.591L35.9175 45.75H37.3125L39.4575 50.8333H20.7375L22.8825 45.75H24.08L23.3575 44.591L22.5 43.2083H17.395L14.8675 40.6667H20.9175C19.83 38.9104 18.7975 37.2125 17.8375 35.5833H10L0 55.9167H60L50 35.5833V35.5833ZM18.015 50.8333H8.09L12.5 41.8663L16.29 45.75H20.1625L18.015 50.8333ZM40.035 45.75H49.41L51.91 50.8333H42.18L40.035 45.75Z"></path>
  </symbol>
  <symbol xmlns="http://www.w3.org/2000/svg" viewBox="0 0 60 60" id="support">
    <path d="M30 0C13.4325 0 0 13.4325 0 30C0 46.5675 13.4325 60 30 60C46.5675 60 60 46.5675 60 30C60 13.4325 46.5675 0 30 0ZM52.4375 40.9575L45.9175 37.245C46.925 35.035 47.5 32.5875 47.5 30C47.5 27.4125 46.925 24.965 45.9175 22.7575L52.4375 19.045C54.0625 22.3575 55 26.0675 55 30C55 33.9325 54.0625 37.6425 52.4375 40.9575ZM5 30C5 26.0675 5.9375 22.3575 7.5625 19.0425L14.0825 22.755C13.075 24.965 12.5 27.4125 12.5 30C12.5 32.5875 13.075 35.035 14.0825 37.2425L7.5625 40.955C5.9375 37.6425 5 33.9325 5 30V30ZM17.5 30C17.5 23.1075 23.1075 17.5 30 17.5C36.8925 17.5 42.5 23.1075 42.5 30C42.5 36.8925 36.8925 42.5 30 42.5C23.1075 42.5 17.5 36.8925 17.5 30ZM40.9925 7.58L37.28 14.1C35.06 13.0825 32.6 12.5 30 12.5C27.4 12.5 24.94 13.0825 22.72 14.1L19.0075 7.58C22.33 5.945 26.0525 5 30 5C33.9475 5 37.67 5.945 40.9925 7.58V7.58ZM19.0075 52.42L22.72 45.9C24.94 46.9175 27.4 47.5 30 47.5C32.6 47.5 35.06 46.9175 37.28 45.9L40.9925 52.42C37.67 54.055 33.9475 55 30 55C26.0525 55 22.33 54.055 19.0075 52.42V52.42Z"></path>
  </symbol>
  <symbol xmlns="http://www.w3.org/2000/svg" viewBox="0 0 59 60" id="search">
    <path d="M59 54.115L43.6237 38.6025C46.5156 34.59 48.2254 29.655 48.2254 24.325C48.2254 10.9125 37.4087 0 24.1115 0C10.8167 0 0 10.9125 0 24.325C0 37.74 10.8167 48.65 24.1115 48.65C29.1518 48.65 33.8329 47.0825 37.7086 44.405L53.1667 60L59 54.115V54.115ZM7.07237 24.325C7.07237 14.845 14.7172 7.1325 24.1139 7.1325C33.5107 7.1325 41.1555 14.845 41.1555 24.325C41.1555 33.805 33.5107 41.5175 24.1139 41.5175C14.7147 41.5175 7.07237 33.805 7.07237 24.325V24.325Z"></path>
  </symbol>
  <symbol xmlns="http://www.w3.org/2000/svg" viewBox="0 0 60 60" id="telegram">
    <path fill-rule="evenodd" clip-rule="evenodd" d="M47.5 60H12.5C5.5975 60 0 54.4025 0 47.5V12.5C0 5.5975 5.5975 0 12.5 0H47.5C54.405 0 60 5.5975 60 12.5V47.5C60 54.4025 54.405 60 47.5 60ZM40.64 47.13C41.1775 47.5125 41.8675 47.6075 42.485 47.3725C43.1 47.14 43.555 46.6125 43.6925 45.9725C45.14 39.1675 48.655 21.9375 49.9725 15.7475C50.07 15.28 49.905 14.795 49.54 14.4825C49.1725 14.1725 48.6625 14.0825 48.21 14.25C41.2225 16.835 19.7 24.91 10.9025 28.1675C10.345 28.3725 9.9825 28.91 10 29.5C10.02 30.0875 10.4175 30.6 10.9875 30.7725C14.9325 31.95 20.1125 33.5925 20.1125 33.5925C20.1125 33.5925 22.53 40.9025 23.7925 44.6175C23.95 45.085 24.3175 45.4525 24.7975 45.5775C25.28 45.7025 25.79 45.5725 26.15 45.2325C28.1775 43.32 31.31 40.3625 31.31 40.3625C31.31 40.3625 37.2625 44.7275 40.64 47.13V47.13ZM22.29 32.67L25.0875 41.9L25.71 36.055C25.71 36.055 36.52 26.305 42.685 20.745C42.865 20.5825 42.89 20.31 42.74 20.1175C42.59 19.925 42.3175 19.88 42.1125 20.01C34.97 24.5725 22.29 32.67 22.29 32.67V32.67Z"></path>
  </symbol>
</svg>