<svg width="0" height="0" class="hidden">
  <symbol fill="none" xmlns="http://www.w3.org/2000/svg" viewBox="0 0 867 862" id="testimonial_pentagon">
    <path d="M499.831 145.253C573.378 141.389 641.049 185.323 667.45 254.076L731.956 422.055C758.357 490.809 737.485 568.744 680.256 615.099L540.431 728.356C483.201 774.711 402.631 778.944 340.859 738.84L189.938 640.857C128.166 600.753 99.2428 525.434 118.296 454.293L164.845 280.48C183.898 209.338 246.593 158.556 320.14 154.692L499.831 145.253Z" fill="#C4C4C4"></path>
  </symbol>


  <symbol fill="none" xmlns="http://www.w3.org/2000/svg" viewBox="0 0 584 589" id="triangle_testimonial">
      <path d="M39.4228 103.985C30.8484 42.2231 92.3481 -5.66012 150.122 17.795L524.983 169.98C582.757 193.435 593.475 270.637 544.275 308.944L225.049 557.49C175.849 595.796 103.631 566.477 95.0567 504.716L39.4228 103.985Z" fill="#0B4862"></path>
  </symbol>
</svg>
